# xmcd
#
# Track frame offsets:
# 150
# 17900
# 32437
# 48965
# 62052
# 77712
# 93445
# 108452
# 122497
# 141465
# 157915
# 174257
# 187302
# 203155
# 220437
#
# Disc length: 3179 seconds
#
#
# Revision: 0
# Processed by: cddbd v1.5.2PL0 Copyright (c) Steve Scherf et al.
# Submitted via: FreeRIP 2.96 
#
DISCID=cf0c690f
DTITLE=diversos - Sertão caipira Universitário Vol. 1
DYEAR=2007
DGENRE=Sertanejo
TTITLE0=Cidade
TTITLE1=Ajeite o trem aí
TTITLE2=Metade do meu coração
TTITLE3=Deixa a poeira voar
TTITLE4=Sertão caipira
TTITLE5=Dois apaixonados
TTITLE6=Eu sou peão
TTITLE7=Tá nervoso, vai péscar
TTITLE8=Recomeçar
TTITLE9=O coração chora
TTITLE10=Nada mudou
TTITLE11=Não tem mais volta
TTITLE12=Pra fazer a marcação
TTITLE13=Jeito atrevido
TTITLE14=Diversão
EXTD=
EXTT0=
EXTT1=
EXTT2=
EXTT3=
EXTT4=
EXTT5=
EXTT6=
EXTT7=
EXTT8=
EXTT9=
EXTT10=
EXTT11=
EXTT12=
EXTT13=
EXTT14=
PLAYORDER=
